<svg xmlns="http://www.w3.org/2000/svg" xmlns:xlink="http://www.w3.org/1999/xlink" xmlns:lucid="lucid" width="8281" height="2041"><g transform="translate(5780.5 20.5)" lucid:page-tab-id="0_0"><path d="M-6000 0h8500v2000h-8500z" fill="#fff"/><path d="M-5760 5a5 5 0 0 1 5-5h1790a5 5 0 0 1 5 5v1990a5 5 0 0 1-5 5h-1790a5 5 0 0 1-5-5z" fill="#fff"/><path d="M-5760 788v203h1800V788M-5760 1192v203h1800v-203M-5760 1596v203h1800v-203" fill="#e6e6e6"/><path d="M-5760 202V5a5 5 0 0 1 5-5h1790a5 5 0 0 1 5 5v197" fill="#dedeff"/><path d="M-5760 5a5 5 0 0 1 5-5h1790a5 5 0 0 1 5 5v1990a5 5 0 0 1-5 5h-1790a5 5 0 0 1-5-5zM-5760 202h1800M-4860 202v1798" stroke="#282c33" fill="none"/><use xlink:href="#a" transform="matrix(1,0,0,1,-5750,0) translate(0 133)"/><use xlink:href="#b" transform="matrix(1,0,0,1,-5755,204.5) translate(0 322.5)"/><use xlink:href="#c" transform="matrix(1,0,0,1,-4855,204.5) translate(0 130.5)"/><use xlink:href="#d" transform="matrix(1,0,0,1,-4855,204.5) translate(0 322.5)"/><use xlink:href="#e" transform="matrix(1,0,0,1,-4855,204.5) translate(0 514.5)"/><use xlink:href="#f" transform="matrix(1,0,0,1,-5755,790.5) translate(0 130.5)"/><use xlink:href="#g" transform="matrix(1,0,0,1,-4855,790.5) translate(0 130.5)"/><use xlink:href="#h" transform="matrix(1,0,0,1,-5755,992.5) translate(0 130.5)"/><use xlink:href="#g" transform="matrix(1,0,0,1,-4855,992.5) translate(0 130.5)"/><use xlink:href="#i" transform="matrix(1,0,0,1,-5755,1194.5) translate(0 130.5)"/><use xlink:href="#g" transform="matrix(1,0,0,1,-4855,1194.5) translate(0 130.5)"/><use xlink:href="#j" transform="matrix(1,0,0,1,-5755,1396.5) translate(0 130.5)"/><use xlink:href="#g" transform="matrix(1,0,0,1,-4855,1396.5) translate(0 130.5)"/><use xlink:href="#k" transform="matrix(1,0,0,1,-5755,1598.5) translate(0 130.5)"/><use xlink:href="#g" transform="matrix(1,0,0,1,-4855,1598.5) translate(0 130.5)"/><use xlink:href="#l" transform="matrix(1,0,0,1,-5755,1800.5) translate(0 130.5)"/><use xlink:href="#g" transform="matrix(1,0,0,1,-4855,1800.5) translate(0 130.5)"/><path d="M-3760 5a5 5 0 0 1 5-5h1790a5 5 0 0 1 5 5v1586a5 5 0 0 1-5 5h-1790a5 5 0 0 1-5-5z" fill="#fff"/><path d="M-3760 404v203h1800V404M-3760 808v203h1800V808" fill="#e6e6e6"/><path d="M-3760 202V5a5 5 0 0 1 5-5h1790a5 5 0 0 1 5 5v197" fill="#dedeff"/><path d="M-3760 5a5 5 0 0 1 5-5h1790a5 5 0 0 1 5 5v1586a5 5 0 0 1-5 5h-1790a5 5 0 0 1-5-5zM-3760 202h1800M-2860 202v1394" stroke="#282c33" fill="none"/><use xlink:href="#m" transform="matrix(1,0,0,1,-3750,0) translate(0 133)"/><use xlink:href="#h" transform="matrix(1,0,0,1,-3755,204.5) translate(0 130.5)"/><use xlink:href="#n" transform="matrix(1,0,0,1,-2855,204.5) translate(0 130.5)"/><use xlink:href="#j" transform="matrix(1,0,0,1,-3755,406.5) translate(0 130.5)"/><use xlink:href="#g" transform="matrix(1,0,0,1,-2855,406.5) translate(0 130.5)"/><use xlink:href="#k" transform="matrix(1,0,0,1,-3755,608.5) translate(0 130.5)"/><use xlink:href="#g" transform="matrix(1,0,0,1,-2855,608.5) translate(0 130.5)"/><use xlink:href="#b" transform="matrix(1,0,0,1,-3755,810.5) translate(0 130.5)"/><use xlink:href="#o" transform="matrix(1,0,0,1,-2855,810.5) translate(0 130.5)"/><use xlink:href="#p" transform="matrix(1,0,0,1,-3755,1012.5) translate(0 322.5)"/><use xlink:href="#q" transform="matrix(1,0,0,1,-2855,1012.5) translate(0 130.5)"/><use xlink:href="#r" transform="matrix(1,0,0,1,-2855,1012.5) translate(0 322.5)"/><use xlink:href="#s" transform="matrix(1,0,0,1,-2855,1012.5) translate(0 514.5)"/><path d="M-1760 5a5 5 0 0 1 5-5H35a5 5 0 0 1 5 5v1000a5 5 0 0 1-5 5h-1790a5 5 0 0 1-5-5z" fill="#fff"/><path d="M-1760 404v203H40V404M-1760 808v197a5 5 0 0 0 5 5H35a5 5 0 0 0 5-5V808" fill="#e6e6e6"/><path d="M-1760 202V5a5 5 0 0 1 5-5H35a5 5 0 0 1 5 5v197" fill="#dedeff"/><path d="M-1760 5a5 5 0 0 1 5-5H35a5 5 0 0 1 5 5v1000a5 5 0 0 1-5 5h-1790a5 5 0 0 1-5-5zM-1760 202H40M-860 202v808" stroke="#282c33" fill="none"/><use xlink:href="#t" transform="matrix(1,0,0,1,-1750,0) translate(0 133)"/><use xlink:href="#h" transform="matrix(1,0,0,1,-1755,204.5) translate(0 130.5)"/><use xlink:href="#n" transform="matrix(1,0,0,1,-855,204.5) translate(0 130.5)"/><use xlink:href="#j" transform="matrix(1,0,0,1,-1755,406.5) translate(0 130.5)"/><use xlink:href="#g" transform="matrix(1,0,0,1,-855,406.5) translate(0 130.5)"/><use xlink:href="#k" transform="matrix(1,0,0,1,-1755,608.5) translate(0 130.5)"/><use xlink:href="#g" transform="matrix(1,0,0,1,-855,608.5) translate(0 130.5)"/><use xlink:href="#b" transform="matrix(1,0,0,1,-1755,810.5) translate(0 130.5)"/><use xlink:href="#o" transform="matrix(1,0,0,1,-855,810.5) translate(0 130.5)"/><path d="M40 406.5a6 6 0 0 1 6-6h628a6 6 0 0 1 6 6v197a6 6 0 0 1-6 6H46a6 6 0 0 1-6-6z" stroke="#000" stroke-opacity="0" fill="#fff" fill-opacity="0"/><use xlink:href="#u" transform="matrix(1,0,0,1,45,405.5) translate(92.77777777777774 134.21875)"/><path d="M680 5a5 5 0 0 1 5-5h1790a5 5 0 0 1 5 5v1000a5 5 0 0 1-5 5H685a5 5 0 0 1-5-5z" fill="#fff"/><path d="M680 404v203h1800V404M680 808v197a5 5 0 0 0 5 5h1790a5 5 0 0 0 5-5V808" fill="#e6e6e6"/><path d="M680 202V5a5 5 0 0 1 5-5h1790a5 5 0 0 1 5 5v197" fill="#dedeff"/><path d="M680 5a5 5 0 0 1 5-5h1790a5 5 0 0 1 5 5v1000a5 5 0 0 1-5 5H685a5 5 0 0 1-5-5zM680 202h1800M1580 202v808" stroke="#282c33" fill="none"/><use xlink:href="#v" transform="matrix(1,0,0,1,690,0) translate(0 133)"/><use xlink:href="#h" transform="matrix(1,0,0,1,685,204.5) translate(0 130.5)"/><use xlink:href="#n" transform="matrix(1,0,0,1,1585,204.5) translate(0 130.5)"/><use xlink:href="#j" transform="matrix(1,0,0,1,685,406.5) translate(0 130.5)"/><use xlink:href="#g" transform="matrix(1,0,0,1,1585,406.5) translate(0 130.5)"/><use xlink:href="#k" transform="matrix(1,0,0,1,685,608.5) translate(0 130.5)"/><g><use xlink:href="#g" transform="matrix(1,0,0,1,1585,608.5) translate(0 130.5)"/></g><g><use xlink:href="#b" transform="matrix(1,0,0,1,685,810.5) translate(0 130.5)"/></g><g><use xlink:href="#o" transform="matrix(1,0,0,1,1585,810.5) translate(0 130.5)"/></g><defs><path fill="#333" d="M115-194c55 1 70 41 70 98S169 2 115 4C84 4 66-9 55-30l1 105H24l-1-265h31l2 30c10-21 28-34 59-34zm-8 174c40 0 45-34 45-75s-6-73-45-74c-42 0-51 32-51 76 0 43 10 73 51 73" id="w"/><path fill="#333" d="M141-36C126-15 110 5 73 4 37 3 15-17 15-53c-1-64 63-63 125-63 3-35-9-54-41-54-24 1-41 7-42 31l-33-3c5-37 33-52 76-52 45 0 72 20 72 64v82c-1 20 7 32 28 27v20c-31 9-61-2-59-35zM48-53c0 20 12 33 32 33 41-3 63-29 60-74-43 2-92-5-92 41" id="x"/><path fill="#333" d="M96-169c-40 0-48 33-48 73s9 75 48 75c24 0 41-14 43-38l32 2c-6 37-31 61-74 61-59 0-76-41-82-99-10-93 101-131 147-64 4 7 5 14 7 22l-32 3c-4-21-16-35-41-35" id="y"/><path fill="#333" d="M143 0L79-87 56-68V0H24v-261h32v163l83-92h37l-77 82L181 0h-38" id="z"/><path fill="#333" d="M177-190C167-65 218 103 67 71c-23-6-38-20-44-43l32-5c15 47 100 32 89-28v-30C133-14 115 1 83 1 29 1 15-40 15-95c0-56 16-97 71-98 29-1 48 16 59 35 1-10 0-23 2-32h30zM94-22c36 0 50-32 50-73 0-42-14-75-50-75-39 0-46 34-46 75s6 73 46 73" id="A"/><path fill="#333" d="M100-194c63 0 86 42 84 106H49c0 40 14 67 53 68 26 1 43-12 49-29l28 8c-11 28-37 45-77 45C44 4 14-33 15-96c1-61 26-98 85-98zm52 81c6-60-76-77-97-28-3 7-6 17-6 28h103" id="B"/><path fill="#333" d="M135-143c-3-34-86-38-87 0 15 53 115 12 119 90S17 21 10-45l28-5c4 36 97 45 98 0-10-56-113-15-118-90-4-57 82-63 122-42 12 7 21 19 24 35" id="C"/><g id="a"><use transform="matrix(0.4444444444444444,0,0,0.4444444444444444,0,0)" xlink:href="#w"/><use transform="matrix(0.4444444444444444,0,0,0.4444444444444444,88.88888888888889,0)" xlink:href="#x"/><use transform="matrix(0.4444444444444444,0,0,0.4444444444444444,177.77777777777777,0)" xlink:href="#y"/><use transform="matrix(0.4444444444444444,0,0,0.4444444444444444,257.77777777777777,0)" xlink:href="#z"/><use transform="matrix(0.4444444444444444,0,0,0.4444444444444444,337.77777777777777,0)" xlink:href="#x"/><use transform="matrix(0.4444444444444444,0,0,0.4444444444444444,426.66666666666663,0)" xlink:href="#A"/><use transform="matrix(0.4444444444444444,0,0,0.4444444444444444,515.5555555555555,0)" xlink:href="#B"/><use transform="matrix(0.4444444444444444,0,0,0.4444444444444444,604.4444444444445,0)" xlink:href="#C"/></g><path fill="#333" d="M194 0L95-120 63-95V0H30v-248h33v124l119-124h40L117-140 236 0h-42" id="D"/><path fill="#333" d="M179-190L93 31C79 59 56 82 12 73V49c39 6 53-20 64-50L1-190h34L92-34l54-156h33" id="E"/><g id="b"><use transform="matrix(0.4444444444444444,0,0,0.4444444444444444,0,0)" xlink:href="#w"/><use transform="matrix(0.4444444444444444,0,0,0.4444444444444444,88.88888888888889,0)" xlink:href="#z"/><use transform="matrix(0.4444444444444444,0,0,0.4444444444444444,168.88888888888889,0)" xlink:href="#A"/><use transform="matrix(0.4444444444444444,0,0,0.4444444444444444,257.77777777777777,0)" xlink:href="#D"/><use transform="matrix(0.4444444444444444,0,0,0.4444444444444444,364.44444444444446,0)" xlink:href="#B"/><use transform="matrix(0.4444444444444444,0,0,0.4444444444444444,453.33333333333337,0)" xlink:href="#E"/></g><path d="M33 0v-248h34V0H33" id="F"/><path d="M190 0L58-211 59 0H30v-248h39L202-35l-2-213h31V0h-41" id="G"/><path d="M127-220V0H93v-220H8v-28h204v28h-85" id="H"/><path d="M30 0v-248h187v28H63v79h144v27H63v87h162V0H30" id="I"/><path d="M143 4C61 4 22-44 18-125c-5-107 100-154 193-111 17 8 29 25 37 43l-32 9c-13-25-37-40-76-40-61 0-88 39-88 99 0 61 29 100 91 101 35 0 62-11 79-27v-45h-74v-28h105v86C228-13 192 4 143 4" id="J"/><path d="M233-177c-1 41-23 64-60 70L243 0h-38l-65-103H63V0H30v-248c88 3 205-21 203 71zM63-129c60-2 137 13 137-47 0-61-80-42-137-45v92" id="K"/><g id="c"><use transform="matrix(0.4444444444444444,0,0,0.4444444444444444,0,0)" xlink:href="#F"/><use transform="matrix(0.4444444444444444,0,0,0.4444444444444444,44.44444444444444,0)" xlink:href="#G"/><use transform="matrix(0.4444444444444444,0,0,0.4444444444444444,159.55555555555554,0)" xlink:href="#H"/><use transform="matrix(0.4444444444444444,0,0,0.4444444444444444,256.88888888888886,0)" xlink:href="#I"/><use transform="matrix(0.4444444444444444,0,0,0.4444444444444444,363.55555555555554,0)" xlink:href="#J"/><use transform="matrix(0.4444444444444444,0,0,0.4444444444444444,488,0)" xlink:href="#I"/><use transform="matrix(0.4444444444444444,0,0,0.4444444444444444,594.6666666666666,0)" xlink:href="#K"/></g><path d="M30-248c87 1 191-15 191 75 0 78-77 80-158 76V0H30v-248zm33 125c57 0 124 11 124-50 0-59-68-47-124-48v98" id="L"/><path d="M240 0l2-218c-23 76-54 145-80 218h-23L58-218 59 0H30v-248h44l77 211c21-75 51-140 76-211h43V0h-30" id="M"/><path d="M205 0l-28-72H64L36 0H1l101-248h38L239 0h-34zm-38-99l-47-123c-12 45-31 82-46 123h93" id="N"/><path d="M137-103V0h-34v-103L8-248h37l75 118 75-118h37" id="O"/><g id="d"><use transform="matrix(0.4444444444444444,0,0,0.4444444444444444,0,0)" xlink:href="#L"/><use transform="matrix(0.4444444444444444,0,0,0.4444444444444444,106.66666666666666,0)" xlink:href="#K"/><use transform="matrix(0.4444444444444444,0,0,0.4444444444444444,221.77777777777777,0)" xlink:href="#F"/><use transform="matrix(0.4444444444444444,0,0,0.4444444444444444,266.22222222222223,0)" xlink:href="#M"/><use transform="matrix(0.4444444444444444,0,0,0.4444444444444444,399.1111111111111,0)" xlink:href="#N"/><use transform="matrix(0.4444444444444444,0,0,0.4444444444444444,505.77777777777777,0)" xlink:href="#K"/><use transform="matrix(0.4444444444444444,0,0,0.4444444444444444,617.7777777777777,0)" xlink:href="#O"/></g><path d="M194 0L95-120 63-95V0H30v-248h33v124l119-124h40L117-140 236 0h-42" id="P"/><g id="e"><use transform="matrix(0.4444444444444444,0,0,0.4444444444444444,0,0)" xlink:href="#P"/><use transform="matrix(0.4444444444444444,0,0,0.4444444444444444,106.66666666666666,0)" xlink:href="#I"/><use transform="matrix(0.4444444444444444,0,0,0.4444444444444444,213.33333333333331,0)" xlink:href="#O"/></g><path fill="#333" d="M33 0v-248h34V0H33" id="Q"/><path fill="#333" d="M85-194c31 0 48 13 60 33l-1-100h32l1 261h-30c-2-10 0-23-3-31C134-8 116 4 85 4 32 4 16-35 15-94c0-66 23-100 70-100zm9 24c-40 0-46 34-46 75 0 40 6 74 45 74 42 0 51-32 51-76 0-42-9-74-50-73" id="R"/><g id="f"><use transform="matrix(0.4444444444444444,0,0,0.4444444444444444,0,0)" xlink:href="#w"/><use transform="matrix(0.4444444444444444,0,0,0.4444444444444444,88.88888888888889,0)" xlink:href="#z"/><use transform="matrix(0.4444444444444444,0,0,0.4444444444444444,168.88888888888889,0)" xlink:href="#A"/><use transform="matrix(0.4444444444444444,0,0,0.4444444444444444,257.77777777777777,0)" xlink:href="#Q"/><use transform="matrix(0.4444444444444444,0,0,0.4444444444444444,302.22222222222223,0)" xlink:href="#R"/></g><path fill="#333" d="M127-220V0H93v-220H8v-28h204v28h-85" id="S"/><path fill="#333" d="M30 0v-248h187v28H63v79h144v27H63v87h162V0H30" id="T"/><path fill="#333" d="M195 0l-74-108L45 0H8l94-129-87-119h37l69 98 67-98h37l-84 118L233 0h-38" id="U"/><g id="g"><use transform="matrix(0.4444444444444444,0,0,0.4444444444444444,0,0)" xlink:href="#S"/><use transform="matrix(0.4444444444444444,0,0,0.4444444444444444,97.33333333333333,0)" xlink:href="#T"/><use transform="matrix(0.4444444444444444,0,0,0.4444444444444444,204,0)" xlink:href="#U"/><use transform="matrix(0.4444444444444444,0,0,0.4444444444444444,310.66666666666663,0)" xlink:href="#S"/></g><path fill="#333" d="M117-194c89-4 53 116 60 194h-32v-121c0-31-8-49-39-48C34-167 62-67 57 0H25l-1-190h30c1 10-1 24 2 32 11-22 29-35 61-36" id="V"/><path fill="#333" d="M210-169c-67 3-38 105-44 169h-31v-121c0-29-5-50-35-48C34-165 62-65 56 0H25l-1-190h30c1 10-1 24 2 32 10-44 99-50 107 0 11-21 27-35 58-36 85-2 47 119 55 194h-31v-121c0-29-5-49-35-48" id="W"/><g id="h"><use transform="matrix(0.4444444444444444,0,0,0.4444444444444444,0,0)" xlink:href="#V"/><use transform="matrix(0.4444444444444444,0,0,0.4444444444444444,88.88888888888889,0)" xlink:href="#x"/><use transform="matrix(0.4444444444444444,0,0,0.4444444444444444,177.77777777777777,0)" xlink:href="#W"/><use transform="matrix(0.4444444444444444,0,0,0.4444444444444444,310.66666666666663,0)" xlink:href="#B"/></g><path fill="#333" d="M114-163C36-179 61-72 57 0H25l-1-190h30c1 12-1 29 2 39 6-27 23-49 58-41v29" id="X"/><path fill="#333" d="M106-169C34-169 62-67 57 0H25v-261h32l-1 103c12-21 28-36 61-36 89 0 53 116 60 194h-32v-121c2-32-8-49-39-48" id="Y"/><g id="i"><use transform="matrix(0.4444444444444444,0,0,0.4444444444444444,0,0)" xlink:href="#x"/><use transform="matrix(0.4444444444444444,0,0,0.4444444444444444,88.88888888888889,0)" xlink:href="#X"/><use transform="matrix(0.4444444444444444,0,0,0.4444444444444444,141.77777777777777,0)" xlink:href="#y"/><use transform="matrix(0.4444444444444444,0,0,0.4444444444444444,221.77777777777777,0)" xlink:href="#Y"/></g><path fill="#333" d="M108 0H70L1-190h34L89-25l56-165h34" id="Z"/><path fill="#333" d="M24-231v-30h32v30H24zM24 0v-190h32V0H24" id="aa"/><path fill="#333" d="M100-194c62-1 85 37 85 99 1 63-27 99-86 99S16-35 15-95c0-66 28-99 85-99zM99-20c44 1 53-31 53-75 0-43-8-75-51-75s-53 32-53 75 10 74 51 75" id="ab"/><g id="j"><use transform="matrix(0.4444444444444444,0,0,0.4444444444444444,0,0)" xlink:href="#Z"/><use transform="matrix(0.4444444444444444,0,0,0.4444444444444444,80,0)" xlink:href="#B"/><use transform="matrix(0.4444444444444444,0,0,0.4444444444444444,168.88888888888889,0)" xlink:href="#X"/><use transform="matrix(0.4444444444444444,0,0,0.4444444444444444,221.77777777777777,0)" xlink:href="#C"/><use transform="matrix(0.4444444444444444,0,0,0.4444444444444444,301.77777777777777,0)" xlink:href="#aa"/><use transform="matrix(0.4444444444444444,0,0,0.4444444444444444,336.88888888888886,0)" xlink:href="#ab"/><use transform="matrix(0.4444444444444444,0,0,0.4444444444444444,425.7777777777777,0)" xlink:href="#V"/></g><path fill="#333" d="M24 0v-261h32V0H24" id="ac"/><g id="k"><use transform="matrix(0.4444444444444444,0,0,0.4444444444444444,0,0)" xlink:href="#X"/><use transform="matrix(0.4444444444444444,0,0,0.4444444444444444,52.888888888888886,0)" xlink:href="#B"/><use transform="matrix(0.4444444444444444,0,0,0.4444444444444444,141.77777777777777,0)" xlink:href="#ac"/><use transform="matrix(0.4444444444444444,0,0,0.4444444444444444,176.88888888888889,0)" xlink:href="#B"/><use transform="matrix(0.4444444444444444,0,0,0.4444444444444444,265.77777777777777,0)" xlink:href="#x"/><use transform="matrix(0.4444444444444444,0,0,0.4444444444444444,354.66666666666663,0)" xlink:href="#C"/><use transform="matrix(0.4444444444444444,0,0,0.4444444444444444,434.66666666666663,0)" xlink:href="#B"/></g><path fill="#333" d="M59-47c-2 24 18 29 38 22v24C64 9 27 4 27-40v-127H5v-23h24l9-43h21v43h35v23H59v120" id="ad"/><g id="l"><use transform="matrix(0.4444444444444444,0,0,0.4444444444444444,0,0)" xlink:href="#R"/><use transform="matrix(0.4444444444444444,0,0,0.4444444444444444,88.88888888888889,0)" xlink:href="#B"/><use transform="matrix(0.4444444444444444,0,0,0.4444444444444444,177.77777777777777,0)" xlink:href="#C"/><use transform="matrix(0.4444444444444444,0,0,0.4444444444444444,257.77777777777777,0)" xlink:href="#y"/><use transform="matrix(0.4444444444444444,0,0,0.4444444444444444,337.77777777777777,0)" xlink:href="#X"/><use transform="matrix(0.4444444444444444,0,0,0.4444444444444444,390.66666666666663,0)" xlink:href="#aa"/><use transform="matrix(0.4444444444444444,0,0,0.4444444444444444,425.7777777777777,0)" xlink:href="#w"/><use transform="matrix(0.4444444444444444,0,0,0.4444444444444444,514.6666666666666,0)" xlink:href="#ad"/><use transform="matrix(0.4444444444444444,0,0,0.4444444444444444,559.1111111111111,0)" xlink:href="#aa"/><use transform="matrix(0.4444444444444444,0,0,0.4444444444444444,594.2222222222222,0)" xlink:href="#ab"/><use transform="matrix(0.4444444444444444,0,0,0.4444444444444444,683.1111111111111,0)" xlink:href="#V"/></g><g id="m"><use transform="matrix(0.4444444444444444,0,0,0.4444444444444444,0,0)" xlink:href="#R"/><use transform="matrix(0.4444444444444444,0,0,0.4444444444444444,88.88888888888889,0)" xlink:href="#B"/><use transform="matrix(0.4444444444444444,0,0,0.4444444444444444,177.77777777777777,0)" xlink:href="#w"/><use transform="matrix(0.4444444444444444,0,0,0.4444444444444444,266.66666666666663,0)" xlink:href="#B"/><use transform="matrix(0.4444444444444444,0,0,0.4444444444444444,355.55555555555554,0)" xlink:href="#V"/><use transform="matrix(0.4444444444444444,0,0,0.4444444444444444,444.44444444444446,0)" xlink:href="#R"/><use transform="matrix(0.4444444444444444,0,0,0.4444444444444444,533.3333333333334,0)" xlink:href="#C"/></g><path d="M195 0l-74-108L45 0H8l94-129-87-119h37l69 98 67-98h37l-84 118L233 0h-38" id="ae"/><g id="n"><use transform="matrix(0.4444444444444444,0,0,0.4444444444444444,0,0)" xlink:href="#H"/><use transform="matrix(0.4444444444444444,0,0,0.4444444444444444,97.33333333333333,0)" xlink:href="#I"/><use transform="matrix(0.4444444444444444,0,0,0.4444444444444444,204,0)" xlink:href="#ae"/><use transform="matrix(0.4444444444444444,0,0,0.4444444444444444,310.66666666666663,0)" xlink:href="#H"/></g><path fill="#333" d="M190 0L58-211 59 0H30v-248h39L202-35l-2-213h31V0h-41" id="af"/><path fill="#333" d="M143 4C61 4 22-44 18-125c-5-107 100-154 193-111 17 8 29 25 37 43l-32 9c-13-25-37-40-76-40-61 0-88 39-88 99 0 61 29 100 91 101 35 0 62-11 79-27v-45h-74v-28h105v86C228-13 192 4 143 4" id="ag"/><path fill="#333" d="M233-177c-1 41-23 64-60 70L243 0h-38l-65-103H63V0H30v-248c88 3 205-21 203 71zM63-129c60-2 137 13 137-47 0-61-80-42-137-45v92" id="ah"/><g id="o"><use transform="matrix(0.4444444444444444,0,0,0.4444444444444444,0,0)" xlink:href="#Q"/><use transform="matrix(0.4444444444444444,0,0,0.4444444444444444,44.44444444444444,0)" xlink:href="#af"/><use transform="matrix(0.4444444444444444,0,0,0.4444444444444444,159.55555555555554,0)" xlink:href="#S"/><use transform="matrix(0.4444444444444444,0,0,0.4444444444444444,256.88888888888886,0)" xlink:href="#T"/><use transform="matrix(0.4444444444444444,0,0,0.4444444444444444,363.55555555555554,0)" xlink:href="#ag"/><use transform="matrix(0.4444444444444444,0,0,0.4444444444444444,488,0)" xlink:href="#T"/><use transform="matrix(0.4444444444444444,0,0,0.4444444444444444,594.6666666666666,0)" xlink:href="#ah"/></g><g id="p"><use transform="matrix(0.4444444444444444,0,0,0.4444444444444444,0,0)" xlink:href="#w"/><use transform="matrix(0.4444444444444444,0,0,0.4444444444444444,88.88888888888889,0)" xlink:href="#X"/><use transform="matrix(0.4444444444444444,0,0,0.4444444444444444,141.77777777777777,0)" xlink:href="#B"/></g><path d="M160-131c35 5 61 23 61 61C221 17 115-2 30 0v-248c76 3 177-17 177 60 0 33-19 50-47 57zm-97-11c50-1 110 9 110-42 0-47-63-36-110-37v79zm0 115c55-2 124 14 124-45 0-56-70-42-124-44v89" id="ai"/><path d="M140-251c81 0 123 46 123 126C263-46 219 4 140 4 59 4 17-45 17-125s42-126 123-126zm0 227c63 0 89-41 89-101s-29-99-89-99c-61 0-89 39-89 99S79-25 140-24" id="aj"/><path d="M30 0v-248h33v221h125V0H30" id="ak"/><g id="q"><use transform="matrix(0.4444444444444444,0,0,0.4444444444444444,0,0)" xlink:href="#ai"/><use transform="matrix(0.4444444444444444,0,0,0.4444444444444444,106.66666666666666,0)" xlink:href="#aj"/><use transform="matrix(0.4444444444444444,0,0,0.4444444444444444,231.1111111111111,0)" xlink:href="#aj"/><use transform="matrix(0.4444444444444444,0,0,0.4444444444444444,355.55555555555554,0)" xlink:href="#ak"/><use transform="matrix(0.4444444444444444,0,0,0.4444444444444444,444.44444444444446,0)" xlink:href="#I"/><use transform="matrix(0.4444444444444444,0,0,0.4444444444444444,551.1111111111111,0)" xlink:href="#N"/><use transform="matrix(0.4444444444444444,0,0,0.4444444444444444,657.7777777777777,0)" xlink:href="#G"/></g><path d="M30-248c118-7 216 8 213 122C240-48 200 0 122 0H30v-248zM63-27c89 8 146-16 146-99s-60-101-146-95v194" id="al"/><path d="M63-220v92h138v28H63V0H30v-248h175v28H63" id="am"/><path d="M232-93c-1 65-40 97-104 97C67 4 28-28 28-90v-158h33c8 89-33 224 67 224 102 0 64-133 71-224h33v155" id="an"/><g id="r"><use transform="matrix(0.4444444444444444,0,0,0.4444444444444444,0,0)" xlink:href="#al"/><use transform="matrix(0.4444444444444444,0,0,0.4444444444444444,115.1111111111111,0)" xlink:href="#I"/><use transform="matrix(0.4444444444444444,0,0,0.4444444444444444,221.77777777777777,0)" xlink:href="#am"/><use transform="matrix(0.4444444444444444,0,0,0.4444444444444444,310.22222222222223,0)" xlink:href="#N"/><use transform="matrix(0.4444444444444444,0,0,0.4444444444444444,416.8888888888889,0)" xlink:href="#an"/><use transform="matrix(0.4444444444444444,0,0,0.4444444444444444,532,0)" xlink:href="#ak"/><use transform="matrix(0.4444444444444444,0,0,0.4444444444444444,608.8888888888889,0)" xlink:href="#H"/></g><path d="M185-189c-5-48-123-54-124 2 14 75 158 14 163 119 3 78-121 87-175 55-17-10-28-26-33-46l33-7c5 56 141 63 141-1 0-78-155-14-162-118-5-82 145-84 179-34 5 7 8 16 11 25" id="ao"/><g id="s"><use transform="matrix(0.4444444444444444,0,0,0.4444444444444444,0,0)" xlink:href="#am"/><use transform="matrix(0.4444444444444444,0,0,0.4444444444444444,88.44444444444444,0)" xlink:href="#N"/><use transform="matrix(0.4444444444444444,0,0,0.4444444444444444,195.1111111111111,0)" xlink:href="#ak"/><use transform="matrix(0.4444444444444444,0,0,0.4444444444444444,284,0)" xlink:href="#ao"/><use transform="matrix(0.4444444444444444,0,0,0.4444444444444444,390.66666666666663,0)" xlink:href="#I"/></g><g id="t"><use transform="matrix(0.4444444444444444,0,0,0.4444444444444444,0,0)" xlink:href="#X"/><use transform="matrix(0.4444444444444444,0,0,0.4444444444444444,52.888888888888886,0)" xlink:href="#B"/><use transform="matrix(0.4444444444444444,0,0,0.4444444444444444,141.77777777777777,0)" xlink:href="#y"/><use transform="matrix(0.4444444444444444,0,0,0.4444444444444444,221.77777777777777,0)" xlink:href="#ab"/><use transform="matrix(0.4444444444444444,0,0,0.4444444444444444,310.66666666666663,0)" xlink:href="#W"/><use transform="matrix(0.4444444444444444,0,0,0.4444444444444444,443.55555555555554,0)" xlink:href="#W"/><use transform="matrix(0.4444444444444444,0,0,0.4444444444444444,576.4444444444445,0)" xlink:href="#B"/><use transform="matrix(0.4444444444444444,0,0,0.4444444444444444,665.3333333333334,0)" xlink:href="#V"/><use transform="matrix(0.4444444444444444,0,0,0.4444444444444444,754.2222222222223,0)" xlink:href="#R"/><use transform="matrix(0.4444444444444444,0,0,0.4444444444444444,843.1111111111112,0)" xlink:href="#C"/></g><path fill="#3a414a" d="M33 0v-38h34V0H33" id="ap"/><g id="u"><use transform="matrix(0.4444444444444444,0,0,0.4444444444444444,0,0)" xlink:href="#ap"/><use transform="matrix(0.4444444444444444,0,0,0.4444444444444444,44.44444444444444,0)" xlink:href="#ap"/><use transform="matrix(0.4444444444444444,0,0,0.4444444444444444,88.88888888888889,0)" xlink:href="#ap"/><use transform="matrix(0.4444444444444444,0,0,0.4444444444444444,133.33333333333331,0)" xlink:href="#ap"/><use transform="matrix(0.4444444444444444,0,0,0.4444444444444444,177.77777777777777,0)" xlink:href="#ap"/><use transform="matrix(0.4444444444444444,0,0,0.4444444444444444,222.22222222222223,0)" xlink:href="#ap"/><use transform="matrix(0.4444444444444444,0,0,0.4444444444444444,266.6666666666667,0)" xlink:href="#ap"/><use transform="matrix(0.4444444444444444,0,0,0.4444444444444444,311.11111111111114,0)" xlink:href="#ap"/><use transform="matrix(0.4444444444444444,0,0,0.4444444444444444,355.5555555555556,0)" xlink:href="#ap"/><use transform="matrix(0.4444444444444444,0,0,0.4444444444444444,400.00000000000006,0)" xlink:href="#ap"/></g><g id="v"><use transform="matrix(0.4444444444444444,0,0,0.4444444444444444,0,0)" xlink:href="#w"/><use transform="matrix(0.4444444444444444,0,0,0.4444444444444444,88.88888888888889,0)" xlink:href="#X"/><use transform="matrix(0.4444444444444444,0,0,0.4444444444444444,141.77777777777777,0)" xlink:href="#ab"/><use transform="matrix(0.4444444444444444,0,0,0.4444444444444444,230.66666666666666,0)" xlink:href="#Z"/><use transform="matrix(0.4444444444444444,0,0,0.4444444444444444,310.66666666666663,0)" xlink:href="#aa"/><use transform="matrix(0.4444444444444444,0,0,0.4444444444444444,345.7777777777777,0)" xlink:href="#R"/><use transform="matrix(0.4444444444444444,0,0,0.4444444444444444,434.66666666666663,0)" xlink:href="#B"/><use transform="matrix(0.4444444444444444,0,0,0.4444444444444444,523.5555555555555,0)" xlink:href="#C"/></g></defs></g></svg>