<svg xmlns="http://www.w3.org/2000/svg" xmlns:xlink="http://www.w3.org/1999/xlink" xmlns:lucid="lucid" width="7123.69" height="2557.67"><g transform="translate(5520.5 928.833333333333)" lucid:page-tab-id="0_0"><path d="M-5500-1000h7500v3000h-7500z" fill="#fff"/><path d="M-5500-902.33a6 6 0 0 1 6-6h7028a6 6 0 0 1 6 6v2504.66a6 6 0 0 1-6 6h-7028a6 6 0 0 1-6-6z" stroke="#3a414a" fill="#4c535d"/><use xlink:href="#a" transform="matrix(1,0,0,1,-5495,-903.333333333333) translate(0 184.9192708333333)"/><use xlink:href="#b" transform="matrix(1,0,0,1,-5495,-903.333333333333) translate(711.2777777777775 184.9192708333333)"/><use xlink:href="#c" transform="matrix(1,0,0,1,-5495,-903.333333333333) translate(1766.999999999999 184.9192708333333)"/><use xlink:href="#d" transform="matrix(1,0,0,1,-5495,-903.333333333333) translate(2868.0740740740725 184.9192708333333)"/><use xlink:href="#e" transform="matrix(1,0,0,1,-5495,-903.333333333333) translate(4013.35185185185 184.9192708333333)"/><use xlink:href="#f" transform="matrix(1,0,0,1,-5495,-903.333333333333) translate(0 432.91927083333326)"/><use xlink:href="#g" transform="matrix(1,0,0,1,-5495,-903.333333333333) translate(0 680.9192708333331)"/><use xlink:href="#h" transform="matrix(1,0,0,1,-5495,-903.333333333333) translate(0 928.919270833333)"/><use xlink:href="#i" transform="matrix(1,0,0,1,-5495,-903.333333333333) translate(172.22222222222214 928.919270833333)"/><use xlink:href="#j" transform="matrix(1,0,0,1,-5495,-903.333333333333) translate(1789.3888888888882 928.919270833333)"/><use xlink:href="#k" transform="matrix(1,0,0,1,-5495,-903.333333333333) translate(2362.888888888888 928.919270833333)"/><use xlink:href="#l" transform="matrix(1,0,0,1,-5495,-903.333333333333) translate(2741.2037037037026 928.919270833333)"/><use xlink:href="#m" transform="matrix(1,0,0,1,-5495,-903.333333333333) translate(3636.1851851851834 928.919270833333)"/><use xlink:href="#n" transform="matrix(1,0,0,1,-5495,-903.333333333333) translate(4038.037037037035 928.919270833333)"/><use xlink:href="#f" transform="matrix(1,0,0,1,-5495,-903.333333333333) translate(0 1176.919270833333)"/><use xlink:href="#o" transform="matrix(1,0,0,1,-5495,-903.333333333333) translate(0 1424.919270833333)"/><use xlink:href="#h" transform="matrix(1,0,0,1,-5495,-903.333333333333) translate(0 1672.919270833333)"/><use xlink:href="#p" transform="matrix(1,0,0,1,-5495,-903.333333333333) translate(172.22222222222214 1672.919270833333)"/><use xlink:href="#q" transform="matrix(1,0,0,1,-5495,-903.333333333333) translate(1820.9629629629624 1672.919270833333)"/><use xlink:href="#r" transform="matrix(1,0,0,1,-5495,-903.333333333333) translate(2726.277777777777 1672.919270833333)"/><use xlink:href="#s" transform="matrix(1,0,0,1,-5495,-903.333333333333) translate(3104.5925925925917 1672.919270833333)"/><use xlink:href="#h" transform="matrix(1,0,0,1,-5495,-903.333333333333) translate(0 1920.919270833333)"/><use xlink:href="#t" transform="matrix(1,0,0,1,-5495,-903.333333333333) translate(172.22222222222214 1920.919270833333)"/><use xlink:href="#u" transform="matrix(1,0,0,1,-5495,-903.333333333333) translate(1823.2592592592584 1920.919270833333)"/><use xlink:href="#v" transform="matrix(1,0,0,1,-5495,-903.333333333333) translate(2201.574074074073 1920.919270833333)"/><use xlink:href="#w" transform="matrix(1,0,0,1,-5495,-903.333333333333) translate(2464.4999999999986 1920.919270833333)"/><use xlink:href="#x" transform="matrix(1,0,0,1,-5495,-903.333333333333) translate(3405.98148148148 1920.919270833333)"/><use xlink:href="#y" transform="matrix(1,0,0,1,-5495,-903.333333333333) translate(3807.8333333333317 1920.919270833333)"/><use xlink:href="#z" transform="matrix(1,0,0,1,-5495,-903.333333333333) translate(4313.018518518516 1920.919270833333)"/><use xlink:href="#A" transform="matrix(1,0,0,1,-5495,-903.333333333333) translate(5218.907407407405 1920.919270833333)"/><use xlink:href="#h" transform="matrix(1,0,0,1,-5495,-903.333333333333) translate(0 2168.919270833333)"/><use xlink:href="#B" transform="matrix(1,0,0,1,-5495,-903.333333333333) translate(172.22222222222214 2168.919270833333)"/><use xlink:href="#u" transform="matrix(1,0,0,1,-5495,-903.333333333333) translate(1845.6481481481476 2168.919270833333)"/><use xlink:href="#C" transform="matrix(1,0,0,1,-5495,-903.333333333333) translate(2223.962962962962 2168.919270833333)"/><use xlink:href="#D" transform="matrix(1,0,0,1,-5495,-903.333333333333) translate(2854.8703703703695 2168.919270833333)"/><use xlink:href="#m" transform="matrix(1,0,0,1,-5495,-903.333333333333) translate(4093.148148148147 2168.919270833333)"/><use xlink:href="#w" transform="matrix(1,0,0,1,-5495,-903.333333333333) translate(4494.999999999998 2168.919270833333)"/><use xlink:href="#E" transform="matrix(1,0,0,1,-5495,-903.333333333333) translate(5436.481481481479 2168.919270833333)"/><use xlink:href="#F" transform="matrix(1,0,0,1,-5495,-903.333333333333) translate(5734.425925925923 2168.919270833333)"/><use xlink:href="#G" transform="matrix(1,0,0,1,-5495,-903.333333333333) translate(5906.648148148145 2168.919270833333)"/><use xlink:href="#H" transform="matrix(1,0,0,1,-5495,-903.333333333333) translate(6457.185185185182 2168.919270833333)"/><use xlink:href="#h" transform="matrix(1,0,0,1,-5495,-903.333333333333) translate(0 2416.919270833333)"/><use xlink:href="#I" transform="matrix(1,0,0,1,-5495,-903.333333333333) translate(172.22222222222214 2416.919270833333)"/><use xlink:href="#J" transform="matrix(1,0,0,1,-5495,-903.333333333333) translate(1837.0370370370363 2416.919270833333)"/><use xlink:href="#K" transform="matrix(1,0,0,1,-5495,-903.333333333333) translate(2559.796296296295 2416.919270833333)"/><use xlink:href="#C" transform="matrix(1,0,0,1,-5495,-903.333333333333) translate(3477.740740740739 2416.919270833333)"/><use xlink:href="#L" transform="matrix(1,0,0,1,-5495,-903.333333333333) translate(4108.648148148146 2416.919270833333)"/><use xlink:href="#M" transform="matrix(1,0,0,1,-5495,-903.333333333333) translate(4326.22222222222 2416.919270833333)"/><defs><path fill="#f2f3f5" d="M232-93c-1 65-40 97-104 97C67 4 28-28 28-90v-158h33c8 89-33 224 67 224 102 0 64-133 71-224h33v155" id="N"/><path fill="#f2f3f5" d="M135-143c-3-34-86-38-87 0 15 53 115 12 119 90S17 21 10-45l28-5c4 36 97 45 98 0-10-56-113-15-118-90-4-57 82-63 122-42 12 7 21 19 24 35" id="O"/><path fill="#f2f3f5" d="M141-36C126-15 110 5 73 4 37 3 15-17 15-53c-1-64 63-63 125-63 3-35-9-54-41-54-24 1-41 7-42 31l-33-3c5-37 33-52 76-52 45 0 72 20 72 64v82c-1 20 7 32 28 27v20c-31 9-61-2-59-35zM48-53c0 20 12 33 32 33 41-3 63-29 60-74-43 2-92-5-92 41" id="P"/><path fill="#f2f3f5" d="M177-190C167-65 218 103 67 71c-23-6-38-20-44-43l32-5c15 47 100 32 89-28v-30C133-14 115 1 83 1 29 1 15-40 15-95c0-56 16-97 71-98 29-1 48 16 59 35 1-10 0-23 2-32h30zM94-22c36 0 50-32 50-73 0-42-14-75-50-75-39 0-46 34-46 75s6 73 46 73" id="Q"/><path fill="#f2f3f5" d="M100-194c63 0 86 42 84 106H49c0 40 14 67 53 68 26 1 43-12 49-29l28 8c-11 28-37 45-77 45C44 4 14-33 15-96c1-61 26-98 85-98zm52 81c6-60-76-77-97-28-3 7-6 17-6 28h103" id="R"/><path fill="#f2f3f5" d="M33-154v-36h34v36H33zM33 0v-36h34V0H33" id="S"/><g id="a"><use transform="matrix(0.5740740740740738,0,0,0.5740740740740738,0,0)" xlink:href="#N"/><use transform="matrix(0.5740740740740738,0,0,0.5740740740740738,148.68518518518513,0)" xlink:href="#O"/><use transform="matrix(0.5740740740740738,0,0,0.5740740740740738,252.01851851851842,0)" xlink:href="#P"/><use transform="matrix(0.5740740740740738,0,0,0.5740740740740738,366.8333333333332,0)" xlink:href="#Q"/><use transform="matrix(0.5740740740740738,0,0,0.5740740740740738,481.648148148148,0)" xlink:href="#R"/><use transform="matrix(0.5740740740740738,0,0,0.5740740740740738,596.4629629629627,0)" xlink:href="#S"/></g><path fill="#f2f3f5" d="M85-194c31 0 48 13 60 33l-1-100h32l1 261h-30c-2-10 0-23-3-31C134-8 116 4 85 4 32 4 16-35 15-94c0-66 23-100 70-100zm9 24c-40 0-46 34-46 75 0 40 6 74 45 74 42 0 51-32 51-76 0-42-9-74-50-73" id="T"/><path fill="#f2f3f5" d="M115-194c55 1 70 41 70 98S169 2 115 4C84 4 66-9 55-30l1 105H24l-1-265h31l2 30c10-21 28-34 59-34zm-8 174c40 0 45-34 45-75s-6-73-45-74c-42 0-51 32-51 76 0 43 10 73 51 73" id="U"/><path fill="#f2f3f5" d="M24-231v-30h32v30H24zM24 0v-190h32V0H24" id="V"/><path fill="#f2f3f5" d="M117-194c89-4 53 116 60 194h-32v-121c0-31-8-49-39-48C34-167 62-67 57 0H25l-1-190h30c1 10-1 24 2 32 11-22 29-35 61-36" id="W"/><path fill="#f2f3f5" d="M96-169c-40 0-48 33-48 73s9 75 48 75c24 0 41-14 43-38l32 2c-6 37-31 61-74 61-59 0-76-41-82-99-10-93 101-131 147-64 4 7 5 14 7 22l-32 3c-4-21-16-35-41-35" id="X"/><path fill="#f2f3f5" d="M59-47c-2 24 18 29 38 22v24C64 9 27 4 27-40v-127H5v-23h24l9-43h21v43h35v23H59v120" id="Y"/><g id="b"><use transform="matrix(0.5740740740740738,0,0,0.5740740740740738,0,0)" xlink:href="#T"/><use transform="matrix(0.5740740740740738,0,0,0.5740740740740738,114.81481481481477,0)" xlink:href="#R"/><use transform="matrix(0.5740740740740738,0,0,0.5740740740740738,229.62962962962953,0)" xlink:href="#U"/><use transform="matrix(0.5740740740740738,0,0,0.5740740740740738,344.4444444444443,0)" xlink:href="#V"/><use transform="matrix(0.5740740740740738,0,0,0.5740740740740738,389.79629629629613,0)" xlink:href="#W"/><use transform="matrix(0.5740740740740738,0,0,0.5740740740740738,504.6111111111109,0)" xlink:href="#O"/><use transform="matrix(0.5740740740740738,0,0,0.5740740740740738,607.9444444444442,0)" xlink:href="#U"/><use transform="matrix(0.5740740740740738,0,0,0.5740740740740738,722.759259259259,0)" xlink:href="#R"/><use transform="matrix(0.5740740740740738,0,0,0.5740740740740738,837.5740740740738,0)" xlink:href="#X"/><use transform="matrix(0.5740740740740738,0,0,0.5740740740740738,940.907407407407,0)" xlink:href="#Y"/></g><path fill="#f2f3f5" d="M26 75v-336h71v23H56V52h41v23H26" id="Z"/><path fill="#f2f3f5" d="M140-251c81 0 123 46 123 126C263-46 219 4 140 4 59 4 17-45 17-125s42-126 123-126zm0 227c63 0 89-41 89-101s-29-99-89-99c-61 0-89 39-89 99S79-25 140-24" id="aa"/><path fill="#f2f3f5" d="M30-248c87 1 191-15 191 75 0 78-77 80-158 76V0H30v-248zm33 125c57 0 124 11 124-50 0-59-68-47-124-48v98" id="ab"/><path fill="#f2f3f5" d="M127-220V0H93v-220H8v-28h204v28h-85" id="ac"/><path fill="#f2f3f5" d="M33 0v-248h34V0H33" id="ad"/><path fill="#f2f3f5" d="M190 0L58-211 59 0H30v-248h39L202-35l-2-213h31V0h-41" id="ae"/><path fill="#f2f3f5" d="M185-189c-5-48-123-54-124 2 14 75 158 14 163 119 3 78-121 87-175 55-17-10-28-26-33-46l33-7c5 56 141 63 141-1 0-78-155-14-162-118-5-82 145-84 179-34 5 7 8 16 11 25" id="af"/><path fill="#f2f3f5" d="M3 75V52h41v-290H3v-23h71V75H3" id="ag"/><g id="c"><use transform="matrix(0.5740740740740738,0,0,0.5740740740740738,0,0)" xlink:href="#Z"/><use transform="matrix(0.5740740740740738,0,0,0.5740740740740738,57.40740740740738,0)" xlink:href="#aa"/><use transform="matrix(0.5740740740740738,0,0,0.5740740740740738,218.14814814814807,0)" xlink:href="#ab"/><use transform="matrix(0.5740740740740738,0,0,0.5740740740740738,355.9259259259258,0)" xlink:href="#ac"/><use transform="matrix(0.5740740740740738,0,0,0.5740740740740738,481.64814814814787,0)" xlink:href="#ad"/><use transform="matrix(0.5740740740740738,0,0,0.5740740740740738,539.0555555555553,0)" xlink:href="#aa"/><use transform="matrix(0.5740740740740738,0,0,0.5740740740740738,699.7962962962961,0)" xlink:href="#ae"/><use transform="matrix(0.5740740740740738,0,0,0.5740740740740738,848.4814814814811,0)" xlink:href="#af"/><use transform="matrix(0.5740740740740738,0,0,0.5740740740740738,986.2592592592588,0)" xlink:href="#ag"/></g><path fill="#f2f3f5" d="M212-179c-10-28-35-45-73-45-59 0-87 40-87 99 0 60 29 101 89 101 43 0 62-24 78-52l27 14C228-24 195 4 139 4 59 4 22-46 18-125c-6-104 99-153 187-111 19 9 31 26 39 46" id="ah"/><path fill="#f2f3f5" d="M240 0l2-218c-23 76-54 145-80 218h-23L58-218 59 0H30v-248h44l77 211c21-75 51-140 76-211h43V0h-30" id="ai"/><path fill="#f2f3f5" d="M205 0l-28-72H64L36 0H1l101-248h38L239 0h-34zm-38-99l-47-123c-12 45-31 82-46 123h93" id="aj"/><path fill="#f2f3f5" d="M30-248c118-7 216 8 213 122C240-48 200 0 122 0H30v-248zM63-27c89 8 146-16 146-99s-60-101-146-95v194" id="ak"/><g id="d"><use transform="matrix(0.5740740740740738,0,0,0.5740740740740738,0,0)" xlink:href="#ah"/><use transform="matrix(0.5740740740740738,0,0,0.5740740740740738,148.68518518518513,0)" xlink:href="#aa"/><use transform="matrix(0.5740740740740738,0,0,0.5740740740740738,309.4259259259258,0)" xlink:href="#ai"/><use transform="matrix(0.5740740740740738,0,0,0.5740740740740738,481.0740740740739,0)" xlink:href="#ai"/><use transform="matrix(0.5740740740740738,0,0,0.5740740740740738,652.722222222222,0)" xlink:href="#aj"/><use transform="matrix(0.5740740740740738,0,0,0.5740740740740738,790.4999999999997,0)" xlink:href="#ae"/><use transform="matrix(0.5740740740740738,0,0,0.5740740740740738,939.1851851851848,0)" xlink:href="#ak"/></g><path fill="#f2f3f5" d="M233-177c-1 41-23 64-60 70L243 0h-38l-65-103H63V0H30v-248c88 3 205-21 203 71zM63-129c60-2 137 13 137-47 0-61-80-42-137-45v92" id="al"/><path fill="#f2f3f5" d="M143 4C61 4 22-44 18-125c-5-107 100-154 193-111 17 8 29 25 37 43l-32 9c-13-25-37-40-76-40-61 0-88 39-88 99 0 61 29 100 91 101 35 0 62-11 79-27v-45h-74v-28h105v86C228-13 192 4 143 4" id="am"/><path fill="#f2f3f5" d="M33 0v-38h34V0H33" id="an"/><g id="e"><use transform="matrix(0.5740740740740738,0,0,0.5740740740740738,0,0)" xlink:href="#Z"/><use transform="matrix(0.5740740740740738,0,0,0.5740740740740738,57.40740740740738,0)" xlink:href="#aj"/><use transform="matrix(0.5740740740740738,0,0,0.5740740740740738,195.1851851851851,0)" xlink:href="#al"/><use transform="matrix(0.5740740740740738,0,0,0.5740740740740738,343.8703703703702,0)" xlink:href="#am"/><use transform="matrix(0.5740740740740738,0,0,0.5740740740740738,504.61111111111086,0)" xlink:href="#af"/><use transform="matrix(0.5740740740740738,0,0,0.5740740740740738,642.3888888888887,0)" xlink:href="#ag"/><use transform="matrix(0.5740740740740738,0,0,0.5740740740740738,699.7962962962961,0)" xlink:href="#an"/><use transform="matrix(0.5740740740740738,0,0,0.5740740740740738,757.2037037037034,0)" xlink:href="#an"/><use transform="matrix(0.5740740740740738,0,0,0.5740740740740738,814.6111111111107,0)" xlink:href="#an"/></g><path fill="#f2f3f5" d="M100-194c62-1 85 37 85 99 1 63-27 99-86 99S16-35 15-95c0-66 28-99 85-99zM99-20c44 1 53-31 53-75 0-43-8-75-51-75s-53 32-53 75 10 74 51 75" id="ao"/><g id="g"><use transform="matrix(0.5740740740740738,0,0,0.5740740740740738,0,0)" xlink:href="#aa"/><use transform="matrix(0.5740740740740738,0,0,0.5740740740740738,160.74074074074068,0)" xlink:href="#U"/><use transform="matrix(0.5740740740740738,0,0,0.5740740740740738,275.55555555555543,0)" xlink:href="#Y"/><use transform="matrix(0.5740740740740738,0,0,0.5740740740740738,332.9629629629628,0)" xlink:href="#V"/><use transform="matrix(0.5740740740740738,0,0,0.5740740740740738,378.31481481481467,0)" xlink:href="#ao"/><use transform="matrix(0.5740740740740738,0,0,0.5740740740740738,493.12962962962945,0)" xlink:href="#W"/><use transform="matrix(0.5740740740740738,0,0,0.5740740740740738,607.9444444444442,0)" xlink:href="#O"/><use transform="matrix(0.5740740740740738,0,0,0.5740740740740738,711.2777777777775,0)" xlink:href="#S"/></g><path fill="#f2f3f5" d="M16-82v-28h88v28H16" id="ap"/><path fill="#f2f3f5" d="M106-169C34-169 62-67 57 0H25v-261h32l-1 103c12-21 28-36 61-36 89 0 53 116 60 194h-32v-121c2-32-8-49-39-48" id="aq"/><path fill="#f2f3f5" d="M24 0v-261h32V0H24" id="ar"/><g id="i"><use transform="matrix(0.5740740740740738,0,0,0.5740740740740738,0,0)" xlink:href="#ap"/><use transform="matrix(0.5740740740740738,0,0,0.5740740740740738,68.31481481481478,0)" xlink:href="#ap"/><use transform="matrix(0.5740740740740738,0,0,0.5740740740740738,136.62962962962956,0)" xlink:href="#aq"/><use transform="matrix(0.5740740740740738,0,0,0.5740740740740738,251.44444444444434,0)" xlink:href="#R"/><use transform="matrix(0.5740740740740738,0,0,0.5740740740740738,366.2592592592591,0)" xlink:href="#ar"/><use transform="matrix(0.5740740740740738,0,0,0.5740740740740738,411.611111111111,0)" xlink:href="#U"/></g><path fill="#f2f3f5" d="M206 0h-36l-40-164L89 0H53L-1-190h32L70-26l43-164h34l41 164 42-164h31" id="as"/><g id="j"><use transform="matrix(0.5740740740740738,0,0,0.5740740740740738,0,0)" xlink:href="#af"/><use transform="matrix(0.5740740740740738,0,0,0.5740740740740738,137.77777777777771,0)" xlink:href="#aq"/><use transform="matrix(0.5740740740740738,0,0,0.5740740740740738,252.5925925925925,0)" xlink:href="#ao"/><use transform="matrix(0.5740740740740738,0,0,0.5740740740740738,367.4074074074073,0)" xlink:href="#as"/></g><g id="k"><use transform="matrix(0.5740740740740738,0,0,0.5740740740740738,0,0)" xlink:href="#Y"/><use transform="matrix(0.5740740740740738,0,0,0.5740740740740738,57.40740740740738,0)" xlink:href="#aq"/><use transform="matrix(0.5740740740740738,0,0,0.5740740740740738,172.22222222222214,0)" xlink:href="#V"/><use transform="matrix(0.5740740740740738,0,0,0.5740740740740738,217.57407407407396,0)" xlink:href="#O"/></g><path fill="#f2f3f5" d="M210-169c-67 3-38 105-44 169h-31v-121c0-29-5-50-35-48C34-165 62-65 56 0H25l-1-190h30c1 10-1 24 2 32 10-44 99-50 107 0 11-21 27-35 58-36 85-2 47 119 55 194h-31v-121c0-29-5-49-35-48" id="at"/><g id="l"><use transform="matrix(0.5740740740740738,0,0,0.5740740740740738,0,0)" xlink:href="#at"/><use transform="matrix(0.5740740740740738,0,0,0.5740740740740738,171.64814814814807,0)" xlink:href="#R"/><use transform="matrix(0.5740740740740738,0,0,0.5740740740740738,286.4629629629628,0)" xlink:href="#O"/><use transform="matrix(0.5740740740740738,0,0,0.5740740740740738,389.7962962962961,0)" xlink:href="#O"/><use transform="matrix(0.5740740740740738,0,0,0.5740740740740738,493.1296296296293,0)" xlink:href="#P"/><use transform="matrix(0.5740740740740738,0,0,0.5740740740740738,607.9444444444441,0)" xlink:href="#Q"/><use transform="matrix(0.5740740740740738,0,0,0.5740740740740738,722.7592592592589,0)" xlink:href="#R"/></g><g id="m"><use transform="matrix(0.5740740740740738,0,0,0.5740740740740738,0,0)" xlink:href="#P"/><use transform="matrix(0.5740740740740738,0,0,0.5740740740740738,114.81481481481477,0)" xlink:href="#W"/><use transform="matrix(0.5740740740740738,0,0,0.5740740740740738,229.62962962962953,0)" xlink:href="#T"/></g><path fill="#f2f3f5" d="M141 0L90-78 38 0H4l68-98-65-92h35l48 74 47-74h35l-64 92 68 98h-35" id="au"/><g id="n"><use transform="matrix(0.5740740740740738,0,0,0.5740740740740738,0,0)" xlink:href="#R"/><use transform="matrix(0.5740740740740738,0,0,0.5740740740740738,114.81481481481477,0)" xlink:href="#au"/><use transform="matrix(0.5740740740740738,0,0,0.5740740740740738,218.14814814814804,0)" xlink:href="#V"/><use transform="matrix(0.5740740740740738,0,0,0.5740740740740738,263.4999999999999,0)" xlink:href="#Y"/><use transform="matrix(0.5740740740740738,0,0,0.5740740740740738,320.9074074074073,0)" xlink:href="#an"/></g><g id="o"><use transform="matrix(0.5740740740740738,0,0,0.5740740740740738,0,0)" xlink:href="#ah"/><use transform="matrix(0.5740740740740738,0,0,0.5740740740740738,148.68518518518513,0)" xlink:href="#ao"/><use transform="matrix(0.5740740740740738,0,0,0.5740740740740738,263.4999999999999,0)" xlink:href="#at"/><use transform="matrix(0.5740740740740738,0,0,0.5740740740740738,435.1481481481479,0)" xlink:href="#at"/><use transform="matrix(0.5740740740740738,0,0,0.5740740740740738,606.796296296296,0)" xlink:href="#P"/><use transform="matrix(0.5740740740740738,0,0,0.5740740740740738,721.6111111111107,0)" xlink:href="#W"/><use transform="matrix(0.5740740740740738,0,0,0.5740740740740738,836.4259259259254,0)" xlink:href="#T"/><use transform="matrix(0.5740740740740738,0,0,0.5740740740740738,951.2407407407404,0)" xlink:href="#O"/><use transform="matrix(0.5740740740740738,0,0,0.5740740740740738,1054.5740740740737,0)" xlink:href="#S"/></g><path fill="#f2f3f5" d="M101-234c-31-9-42 10-38 44h38v23H63V0H32v-167H5v-23h27c-7-52 17-82 69-68v24" id="av"/><g id="p"><use transform="matrix(0.5740740740740738,0,0,0.5740740740740738,0,0)" xlink:href="#T"/><use transform="matrix(0.5740740740740738,0,0,0.5740740740740738,114.81481481481477,0)" xlink:href="#V"/><use transform="matrix(0.5740740740740738,0,0,0.5740740740740738,160.1666666666666,0)" xlink:href="#av"/><use transform="matrix(0.5740740740740738,0,0,0.5740740740740738,213.55555555555546,0)" xlink:href="#av"/></g><path fill="#f2f3f5" d="M114-163C36-179 61-72 57 0H25l-1-190h30c1 12-1 29 2 39 6-27 23-49 58-41v29" id="aw"/><g id="q"><use transform="matrix(0.5740740740740738,0,0,0.5740740740740738,0,0)" xlink:href="#ah"/><use transform="matrix(0.5740740740740738,0,0,0.5740740740740738,148.68518518518513,0)" xlink:href="#ao"/><use transform="matrix(0.5740740740740738,0,0,0.5740740740740738,263.4999999999999,0)" xlink:href="#at"/><use transform="matrix(0.5740740740740738,0,0,0.5740740740740738,435.1481481481479,0)" xlink:href="#U"/><use transform="matrix(0.5740740740740738,0,0,0.5740740740740738,549.9629629629627,0)" xlink:href="#P"/><use transform="matrix(0.5740740740740738,0,0,0.5740740740740738,664.7777777777775,0)" xlink:href="#aw"/><use transform="matrix(0.5740740740740738,0,0,0.5740740740740738,733.0925925925923,0)" xlink:href="#R"/></g><g id="r"><use transform="matrix(0.5740740740740738,0,0,0.5740740740740738,0,0)" xlink:href="#Y"/><use transform="matrix(0.5740740740740738,0,0,0.5740740740740738,57.40740740740738,0)" xlink:href="#as"/><use transform="matrix(0.5740740740740738,0,0,0.5740740740740738,206.09259259259252,0)" xlink:href="#ao"/></g><path fill="#f2f3f5" d="M143 0L79-87 56-68V0H24v-261h32v163l83-92h37l-77 82L181 0h-38" id="ax"/><g id="s"><use transform="matrix(0.5740740740740738,0,0,0.5740740740740738,0,0)" xlink:href="#U"/><use transform="matrix(0.5740740740740738,0,0,0.5740740740740738,114.81481481481477,0)" xlink:href="#P"/><use transform="matrix(0.5740740740740738,0,0,0.5740740740740738,229.62962962962953,0)" xlink:href="#X"/><use transform="matrix(0.5740740740740738,0,0,0.5740740740740738,332.9629629629628,0)" xlink:href="#ax"/><use transform="matrix(0.5740740740740738,0,0,0.5740740740740738,436.2962962962961,0)" xlink:href="#P"/><use transform="matrix(0.5740740740740738,0,0,0.5740740740740738,551.1111111111109,0)" xlink:href="#Q"/><use transform="matrix(0.5740740740740738,0,0,0.5740740740740738,665.9259259259256,0)" xlink:href="#R"/><use transform="matrix(0.5740740740740738,0,0,0.5740740740740738,780.7407407407404,0)" xlink:href="#O"/><use transform="matrix(0.5740740740740738,0,0,0.5740740740740738,884.0740740740737,0)" xlink:href="#an"/></g><path fill="#f2f3f5" d="M108 0H70L1-190h34L89-25l56-165h34" id="ay"/><g id="t"><use transform="matrix(0.5740740740740738,0,0,0.5740740740740738,0,0)" xlink:href="#av"/><use transform="matrix(0.5740740740740738,0,0,0.5740740740740738,57.40740740740738,0)" xlink:href="#V"/><use transform="matrix(0.5740740740740738,0,0,0.5740740740740738,102.7592592592592,0)" xlink:href="#W"/><use transform="matrix(0.5740740740740738,0,0,0.5740740740740738,217.57407407407396,0)" xlink:href="#T"/><use transform="matrix(0.5740740740740738,0,0,0.5740740740740738,332.38888888888874,0)" xlink:href="#ap"/><use transform="matrix(0.5740740740740738,0,0,0.5740740740740738,400.7037037037035,0)" xlink:href="#T"/><use transform="matrix(0.5740740740740738,0,0,0.5740740740740738,515.5185185185182,0)" xlink:href="#V"/><use transform="matrix(0.5740740740740738,0,0,0.5740740740740738,560.8703703703701,0)" xlink:href="#ay"/><use transform="matrix(0.5740740740740738,0,0,0.5740740740740738,664.2037037037034,0)" xlink:href="#R"/><use transform="matrix(0.5740740740740738,0,0,0.5740740740740738,779.0185185185181,0)" xlink:href="#aw"/><use transform="matrix(0.5740740740740738,0,0,0.5740740740740738,847.3333333333329,0)" xlink:href="#Q"/><use transform="matrix(0.5740740740740738,0,0,0.5740740740740738,962.1481481481476,0)" xlink:href="#R"/><use transform="matrix(0.5740740740740738,0,0,0.5740740740740738,1076.9629629629624,0)" xlink:href="#W"/><use transform="matrix(0.5740740740740738,0,0,0.5740740740740738,1191.7777777777771,0)" xlink:href="#Y"/></g><path fill="#f2f3f5" d="M30 0v-248h33v221h125V0H30" id="az"/><g id="u"><use transform="matrix(0.5740740740740738,0,0,0.5740740740740738,0,0)" xlink:href="#az"/><use transform="matrix(0.5740740740740738,0,0,0.5740740740740738,114.81481481481477,0)" xlink:href="#V"/><use transform="matrix(0.5740740740740738,0,0,0.5740740740740738,160.1666666666666,0)" xlink:href="#O"/><use transform="matrix(0.5740740740740738,0,0,0.5740740740740738,263.4999999999999,0)" xlink:href="#Y"/></g><g id="v"><use transform="matrix(0.5740740740740738,0,0,0.5740740740740738,0,0)" xlink:href="#P"/><use transform="matrix(0.5740740740740738,0,0,0.5740740740740738,114.81481481481477,0)" xlink:href="#ar"/><use transform="matrix(0.5740740740740738,0,0,0.5740740740740738,160.1666666666666,0)" xlink:href="#ar"/></g><g id="w"><use transform="matrix(0.5740740740740738,0,0,0.5740740740740738,0,0)" xlink:href="#U"/><use transform="matrix(0.5740740740740738,0,0,0.5740740740740738,114.81481481481477,0)" xlink:href="#P"/><use transform="matrix(0.5740740740740738,0,0,0.5740740740740738,229.62962962962953,0)" xlink:href="#X"/><use transform="matrix(0.5740740740740738,0,0,0.5740740740740738,332.9629629629628,0)" xlink:href="#ax"/><use transform="matrix(0.5740740740740738,0,0,0.5740740740740738,436.2962962962961,0)" xlink:href="#P"/><use transform="matrix(0.5740740740740738,0,0,0.5740740740740738,551.1111111111109,0)" xlink:href="#Q"/><use transform="matrix(0.5740740740740738,0,0,0.5740740740740738,665.9259259259256,0)" xlink:href="#R"/><use transform="matrix(0.5740740740740738,0,0,0.5740740740740738,780.7407407407404,0)" xlink:href="#O"/></g><g id="x"><use transform="matrix(0.5740740740740738,0,0,0.5740740740740738,0,0)" xlink:href="#Y"/><use transform="matrix(0.5740740740740738,0,0,0.5740740740740738,57.40740740740738,0)" xlink:href="#aq"/><use transform="matrix(0.5740740740740738,0,0,0.5740740740740738,172.22222222222214,0)" xlink:href="#P"/><use transform="matrix(0.5740740740740738,0,0,0.5740740740740738,287.0370370370369,0)" xlink:href="#Y"/></g><g id="y"><use transform="matrix(0.5740740740740738,0,0,0.5740740740740738,0,0)" xlink:href="#aq"/><use transform="matrix(0.5740740740740738,0,0,0.5740740740740738,114.81481481481477,0)" xlink:href="#P"/><use transform="matrix(0.5740740740740738,0,0,0.5740740740740738,229.62962962962953,0)" xlink:href="#ay"/><use transform="matrix(0.5740740740740738,0,0,0.5740740740740738,332.9629629629628,0)" xlink:href="#R"/></g><g id="z"><use transform="matrix(0.5740740740740738,0,0,0.5740740740740738,0,0)" xlink:href="#T"/><use transform="matrix(0.5740740740740738,0,0,0.5740740740740738,114.81481481481477,0)" xlink:href="#V"/><use transform="matrix(0.5740740740740738,0,0,0.5740740740740738,160.1666666666666,0)" xlink:href="#ay"/><use transform="matrix(0.5740740740740738,0,0,0.5740740740740738,263.4999999999999,0)" xlink:href="#R"/><use transform="matrix(0.5740740740740738,0,0,0.5740740740740738,378.31481481481467,0)" xlink:href="#aw"/><use transform="matrix(0.5740740740740738,0,0,0.5740740740740738,446.62962962962945,0)" xlink:href="#Q"/><use transform="matrix(0.5740740740740738,0,0,0.5740740740740738,561.4444444444442,0)" xlink:href="#R"/><use transform="matrix(0.5740740740740738,0,0,0.5740740740740738,676.259259259259,0)" xlink:href="#W"/><use transform="matrix(0.5740740740740738,0,0,0.5740740740740738,791.0740740740738,0)" xlink:href="#Y"/></g><g id="A"><use transform="matrix(0.5740740740740738,0,0,0.5740740740740738,0,0)" xlink:href="#T"/><use transform="matrix(0.5740740740740738,0,0,0.5740740740740738,114.81481481481477,0)" xlink:href="#R"/><use transform="matrix(0.5740740740740738,0,0,0.5740740740740738,229.62962962962953,0)" xlink:href="#U"/><use transform="matrix(0.5740740740740738,0,0,0.5740740740740738,344.4444444444443,0)" xlink:href="#R"/><use transform="matrix(0.5740740740740738,0,0,0.5740740740740738,459.25925925925907,0)" xlink:href="#W"/><use transform="matrix(0.5740740740740738,0,0,0.5740740740740738,574.0740740740738,0)" xlink:href="#T"/><use transform="matrix(0.5740740740740738,0,0,0.5740740740740738,688.8888888888886,0)" xlink:href="#R"/><use transform="matrix(0.5740740740740738,0,0,0.5740740740740738,803.7037037037034,0)" xlink:href="#W"/><use transform="matrix(0.5740740740740738,0,0,0.5740740740740738,918.5185185185181,0)" xlink:href="#X"/><use transform="matrix(0.5740740740740738,0,0,0.5740740740740738,1021.8518518518514,0)" xlink:href="#V"/><use transform="matrix(0.5740740740740738,0,0,0.5740740740740738,1067.2037037037032,0)" xlink:href="#R"/><use transform="matrix(0.5740740740740738,0,0,0.5740740740740738,1182.018518518518,0)" xlink:href="#O"/><use transform="matrix(0.5740740740740738,0,0,0.5740740740740738,1285.3518518518513,0)" xlink:href="#an"/></g><g id="B"><use transform="matrix(0.5740740740740738,0,0,0.5740740740740738,0,0)" xlink:href="#ar"/><use transform="matrix(0.5740740740740738,0,0,0.5740740740740738,45.35185185185183,0)" xlink:href="#V"/><use transform="matrix(0.5740740740740738,0,0,0.5740740740740738,90.70370370370367,0)" xlink:href="#O"/><use transform="matrix(0.5740740740740738,0,0,0.5740740740740738,194.03703703703695,0)" xlink:href="#Y"/><use transform="matrix(0.5740740740740738,0,0,0.5740740740740738,251.44444444444434,0)" xlink:href="#ap"/><use transform="matrix(0.5740740740740738,0,0,0.5740740740740738,319.7592592592591,0)" xlink:href="#P"/><use transform="matrix(0.5740740740740738,0,0,0.5740740740740738,434.5740740740739,0)" xlink:href="#ar"/><use transform="matrix(0.5740740740740738,0,0,0.5740740740740738,479.92592592592575,0)" xlink:href="#ar"/></g><g id="C"><use transform="matrix(0.5740740740740738,0,0,0.5740740740740738,0,0)" xlink:href="#O"/><use transform="matrix(0.5740740740740738,0,0,0.5740740740740738,103.33333333333329,0)" xlink:href="#Y"/><use transform="matrix(0.5740740740740738,0,0,0.5740740740740738,160.74074074074068,0)" xlink:href="#ao"/><use transform="matrix(0.5740740740740738,0,0,0.5740740740740738,275.55555555555543,0)" xlink:href="#aw"/><use transform="matrix(0.5740740740740738,0,0,0.5740740740740738,343.8703703703702,0)" xlink:href="#R"/><use transform="matrix(0.5740740740740738,0,0,0.5740740740740738,458.685185185185,0)" xlink:href="#T"/></g><path fill="#f2f3f5" d="M84 4C-5 8 30-112 23-190h32v120c0 31 7 50 39 49 72-2 45-101 50-169h31l1 190h-30c-1-10 1-25-2-33-11 22-28 36-60 37" id="aA"/><g id="D"><use transform="matrix(0.5740740740740738,0,0,0.5740740740740738,0,0)" xlink:href="#P"/><use transform="matrix(0.5740740740740738,0,0,0.5740740740740738,114.81481481481477,0)" xlink:href="#aw"/><use transform="matrix(0.5740740740740738,0,0,0.5740740740740738,183.12962962962956,0)" xlink:href="#X"/><use transform="matrix(0.5740740740740738,0,0,0.5740740740740738,286.4629629629628,0)" xlink:href="#aq"/><use transform="matrix(0.5740740740740738,0,0,0.5740740740740738,401.2777777777776,0)" xlink:href="#V"/><use transform="matrix(0.5740740740740738,0,0,0.5740740740740738,446.62962962962945,0)" xlink:href="#Y"/><use transform="matrix(0.5740740740740738,0,0,0.5740740740740738,504.03703703703684,0)" xlink:href="#R"/><use transform="matrix(0.5740740740740738,0,0,0.5740740740740738,618.8518518518516,0)" xlink:href="#X"/><use transform="matrix(0.5740740740740738,0,0,0.5740740740740738,722.1851851851849,0)" xlink:href="#Y"/><use transform="matrix(0.5740740740740738,0,0,0.5740740740740738,779.5925925925923,0)" xlink:href="#aA"/><use transform="matrix(0.5740740740740738,0,0,0.5740740740740738,894.407407407407,0)" xlink:href="#aw"/><use transform="matrix(0.5740740740740738,0,0,0.5740740740740738,962.7222222222218,0)" xlink:href="#R"/><use transform="matrix(0.5740740740740738,0,0,0.5740740740740738,1077.5370370370365,0)" xlink:href="#O"/></g><g id="E"><use transform="matrix(0.5740740740740738,0,0,0.5740740740740738,0,0)" xlink:href="#av"/><use transform="matrix(0.5740740740740738,0,0,0.5740740740740738,57.40740740740738,0)" xlink:href="#ao"/><use transform="matrix(0.5740740740740738,0,0,0.5740740740740738,172.22222222222214,0)" xlink:href="#aw"/></g><use transform="matrix(0.5740740740740738,0,0,0.5740740740740738,0,0)" xlink:href="#P" id="F"/><g id="G"><use transform="matrix(0.5740740740740738,0,0,0.5740740740740738,0,0)" xlink:href="#Q"/><use transform="matrix(0.5740740740740738,0,0,0.5740740740740738,114.81481481481477,0)" xlink:href="#V"/><use transform="matrix(0.5740740740740738,0,0,0.5740740740740738,160.1666666666666,0)" xlink:href="#ay"/><use transform="matrix(0.5740740740740738,0,0,0.5740740740740738,263.4999999999999,0)" xlink:href="#R"/><use transform="matrix(0.5740740740740738,0,0,0.5740740740740738,378.31481481481467,0)" xlink:href="#W"/></g><g id="H"><use transform="matrix(0.5740740740740738,0,0,0.5740740740740738,0,0)" xlink:href="#T"/><use transform="matrix(0.5740740740740738,0,0,0.5740740740740738,114.81481481481477,0)" xlink:href="#V"/><use transform="matrix(0.5740740740740738,0,0,0.5740740740740738,160.1666666666666,0)" xlink:href="#O"/><use transform="matrix(0.5740740740740738,0,0,0.5740740740740738,263.4999999999999,0)" xlink:href="#Y"/><use transform="matrix(0.5740740740740738,0,0,0.5740740740740738,320.9074074074073,0)" xlink:href="#aw"/><use transform="matrix(0.5740740740740738,0,0,0.5740740740740738,389.22222222222206,0)" xlink:href="#ao"/><use transform="matrix(0.5740740740740738,0,0,0.5740740740740738,504.03703703703684,0)" xlink:href="#an"/></g><g id="I"><use transform="matrix(0.5740740740740738,0,0,0.5740740740740738,0,0)" xlink:href="#aA"/><use transform="matrix(0.5740740740740738,0,0,0.5740740740740738,114.81481481481477,0)" xlink:href="#U"/><use transform="matrix(0.5740740740740738,0,0,0.5740740740740738,229.62962962962953,0)" xlink:href="#T"/><use transform="matrix(0.5740740740740738,0,0,0.5740740740740738,344.4444444444443,0)" xlink:href="#P"/><use transform="matrix(0.5740740740740738,0,0,0.5740740740740738,459.25925925925907,0)" xlink:href="#Y"/><use transform="matrix(0.5740740740740738,0,0,0.5740740740740738,516.6666666666664,0)" xlink:href="#R"/></g><g id="J"><use transform="matrix(0.5740740740740738,0,0,0.5740740740740738,0,0)" xlink:href="#N"/><use transform="matrix(0.5740740740740738,0,0,0.5740740740740738,148.68518518518513,0)" xlink:href="#U"/><use transform="matrix(0.5740740740740738,0,0,0.5740740740740738,263.4999999999999,0)" xlink:href="#T"/><use transform="matrix(0.5740740740740738,0,0,0.5740740740740738,378.31481481481467,0)" xlink:href="#P"/><use transform="matrix(0.5740740740740738,0,0,0.5740740740740738,493.12962962962945,0)" xlink:href="#Y"/><use transform="matrix(0.5740740740740738,0,0,0.5740740740740738,550.5370370370368,0)" xlink:href="#R"/></g><g id="K"><use transform="matrix(0.5740740740740738,0,0,0.5740740740740738,0,0)" xlink:href="#at"/><use transform="matrix(0.5740740740740738,0,0,0.5740740740740738,171.64814814814807,0)" xlink:href="#R"/><use transform="matrix(0.5740740740740738,0,0,0.5740740740740738,286.4629629629628,0)" xlink:href="#Y"/><use transform="matrix(0.5740740740740738,0,0,0.5740740740740738,343.8703703703702,0)" xlink:href="#P"/><use transform="matrix(0.5740740740740738,0,0,0.5740740740740738,458.685185185185,0)" xlink:href="#T"/><use transform="matrix(0.5740740740740738,0,0,0.5740740740740738,573.4999999999998,0)" xlink:href="#P"/><use transform="matrix(0.5740740740740738,0,0,0.5740740740740738,688.3148148148146,0)" xlink:href="#Y"/><use transform="matrix(0.5740740740740738,0,0,0.5740740740740738,745.722222222222,0)" xlink:href="#P"/></g><g id="L"><use transform="matrix(0.5740740740740738,0,0,0.5740740740740738,0,0)" xlink:href="#V"/><use transform="matrix(0.5740740740740738,0,0,0.5740740740740738,45.35185185185183,0)" xlink:href="#W"/></g><path fill="#f2f3f5" d="M115-194c53 0 69 39 70 98 0 66-23 100-70 100C84 3 66-7 56-30L54 0H23l1-261h32v101c10-23 28-34 59-34zm-8 174c40 0 45-34 45-75 0-40-5-75-45-74-42 0-51 32-51 76 0 43 10 73 51 73" id="aB"/><g id="M"><use transform="matrix(0.5740740740740738,0,0,0.5740740740740738,0,0)" xlink:href="#T"/><use transform="matrix(0.5740740740740738,0,0,0.5740740740740738,114.81481481481477,0)" xlink:href="#P"/><use transform="matrix(0.5740740740740738,0,0,0.5740740740740738,229.62962962962953,0)" xlink:href="#Y"/><use transform="matrix(0.5740740740740738,0,0,0.5740740740740738,287.0370370370369,0)" xlink:href="#P"/><use transform="matrix(0.5740740740740738,0,0,0.5740740740740738,401.8518518518517,0)" xlink:href="#aB"/><use transform="matrix(0.5740740740740738,0,0,0.5740740740740738,516.6666666666664,0)" xlink:href="#P"/><use transform="matrix(0.5740740740740738,0,0,0.5740740740740738,631.4814814814812,0)" xlink:href="#O"/><use transform="matrix(0.5740740740740738,0,0,0.5740740740740738,734.8148148148144,0)" xlink:href="#R"/><use transform="matrix(0.5740740740740738,0,0,0.5740740740740738,849.6296296296292,0)" xlink:href="#O"/><use transform="matrix(0.5740740740740738,0,0,0.5740740740740738,952.9629629629625,0)" xlink:href="#an"/></g></defs></g></svg>